<svg width="4300" height="3200" viewBox="0 0 4300 3200" fill="none" xmlns="http://www.w3.org/2000/svg">
  <style>
    .title { font: 700 34px Inter, Arial, sans-serif; fill: #1f2933; }
    .h1 { font: 700 28px Inter, Arial, sans-serif; fill: #1f2933; }
    .h2 { font: 700 20px Inter, Arial, sans-serif; fill: #1f2933; }
    .body { font: 500 15px Inter, Arial, sans-serif; fill: #52606d; }
    .small { font: 600 12px Inter, Arial, sans-serif; fill: #65707a; }
    .tiny { font: 700 11px Inter, Arial, sans-serif; fill: #65707a; }
    .white { fill: #ffffff; }
    .muted { fill: #65707a; }
    .purple { fill: #7c3aed; }
    .teal { fill: #0f766e; }
    .surface { fill: #ffffff; stroke: #ded8ce; stroke-width: 1; }
    .page { fill: #f7f4ef; stroke: #ded8ce; stroke-width: 1; }
    .soft { fill: #fffdf9; stroke: #e7e0d6; stroke-width: 1; }
    .chip { fill: #e2f4ef; }
    .chipText { font: 700 12px Inter, Arial, sans-serif; fill: #0f766e; }
    .purpleChip { fill: #efe7ff; }
    .purpleChipText { font: 700 12px Inter, Arial, sans-serif; fill: #6d28d9; }
    .orangeChip { fill: #fff1e8; }
    .orangeChipText { font: 700 12px Inter, Arial, sans-serif; fill: #c2410c; }
    .greenChip { fill: #e8f7ec; }
    .greenChipText { font: 700 12px Inter, Arial, sans-serif; fill: #15803d; }
  </style>

  <rect width="4300" height="3200" fill="#ede7dc"/>
  <text x="80" y="90" class="title">EduMatch — Figma-ready board / Week 1 UI/UX</text>
  <text x="80" y="125" class="body">Desktop + mobile screens, design system, MVP structure, ready to import into Figma</text>

  <g id="design-system" transform="translate(80 180)">
    <rect width="780" height="640" rx="18" class="page"/>
    <text x="36" y="58" class="h1">Design System</text>
    <text x="36" y="90" class="body">Цвета, компоненты и состояния для EduMatch</text>

    <text x="36" y="145" class="h2">Colors</text>
    <rect x="36" y="170" width="110" height="76" rx="8" fill="#f7f4ef" stroke="#ded8ce"/>
    <text x="36" y="270" class="small">Background</text>
    <rect x="166" y="170" width="110" height="76" rx="8" fill="#ffffff" stroke="#ded8ce"/>
    <text x="166" y="270" class="small">Surface</text>
    <rect x="296" y="170" width="110" height="76" rx="8" fill="#0f766e"/>
    <text x="296" y="270" class="small">Primary</text>
    <rect x="426" y="170" width="110" height="76" rx="8" fill="#7c3aed"/>
    <text x="426" y="270" class="small">Accent</text>
    <rect x="556" y="170" width="110" height="76" rx="8" fill="#c2410c"/>
    <text x="556" y="270" class="small">Warning</text>

    <text x="36" y="330" class="h2">Components</text>
    <rect x="36" y="360" width="150" height="44" rx="8" fill="#0f766e"/>
    <text x="68" y="388" class="small white">+ Проект</text>
    <rect x="206" y="360" width="150" height="44" rx="8" fill="#7c3aed"/>
    <text x="253" y="388" class="small white">Найти</text>
    <rect x="376" y="360" width="170" height="44" rx="8" class="surface"/>
    <text x="408" y="388" class="small teal">Открыть</text>

    <rect x="36" y="440" width="80" height="30" rx="8" class="chip"/>
    <text x="53" y="460" class="chipText">React</text>
    <rect x="128" y="440" width="104" height="30" rx="8" class="chip"/>
    <text x="145" y="460" class="chipText">Node.js</text>
    <rect x="244" y="440" width="96" height="30" rx="8" class="purpleChip"/>
    <text x="261" y="460" class="purpleChipText">Figma</text>

    <text x="36" y="525" class="h2">Statuses</text>
    <rect x="36" y="548" width="92" height="30" rx="8" class="orangeChip"/>
    <text x="54" y="568" class="orangeChipText">pending</text>
    <rect x="144" y="548" width="96" height="30" rx="8" class="greenChip"/>
    <text x="162" y="568" class="greenChipText">accepted</text>
    <rect x="256" y="548" width="92" height="30" rx="8" fill="#f1eee8"/>
    <text x="274" y="568" class="small">rejected</text>
  </g>

  <g id="auth-desktop" transform="translate(920 180)">
    <rect width="980" height="640" rx="18" class="page"/>
    <rect x="0" y="0" width="410" height="640" rx="18" fill="#0f766e"/>
    <circle cx="116" cy="110" r="34" fill="#ffffff"/>
    <text x="104" y="122" class="h2 teal">E</text>
    <text x="66" y="190" class="title white">EduMatch</text>
    <text x="66" y="235" class="body white">Найди проект, команду и людей под свой стек.</text>
    <rect x="66" y="310" width="265" height="64" rx="8" fill="#ffffff" opacity="0.16"/>
    <text x="86" y="348" class="small white">React · Node.js · Figma · Go</text>
    <rect x="500" y="88" width="390" height="470" rx="12" class="surface"/>
    <text x="540" y="145" class="h1">Вход в аккаунт</text>
    <text x="540" y="178" class="body">Продолжи работу с проектами</text>
    <rect x="540" y="225" width="310" height="46" rx="8" fill="#f7f4ef" stroke="#ded8ce"/>
    <text x="560" y="253" class="small">Email</text>
    <rect x="540" y="292" width="310" height="46" rx="8" fill="#f7f4ef" stroke="#ded8ce"/>
    <text x="560" y="320" class="small">Пароль</text>
    <rect x="540" y="370" width="310" height="48" rx="8" fill="#0f766e"/>
    <text x="658" y="400" class="small white">Sign In</text>
    <text x="604" y="458" class="small purple">Создать новый аккаунт</text>
  </g>

  <g id="dashboard-desktop" transform="translate(1980 180)">
    <rect width="1180" height="760" rx="18" class="page"/>
    <rect x="0" y="0" width="220" height="760" rx="18" fill="#fffaf2" stroke="#ded8ce"/>
    <circle cx="52" cy="54" r="18" fill="#0f766e"/>
    <text x="47" y="61" class="small white">E</text>
    <text x="82" y="60" class="h2">EduMatch</text>
    <rect x="26" y="118" width="168" height="42" rx="8" fill="#e2f4ef"/>
    <text x="58" y="145" class="small teal">Дашборд</text>
    <text x="58" y="205" class="small">Проекты</text>
    <text x="58" y="255" class="small">Тиммейты</text>
    <text x="58" y="305" class="small">Чат</text>

    <text x="260" y="70" class="small purple">Практика · неделя 1</text>
    <text x="260" y="108" class="h1">Дашборд студента</text>
    <rect x="982" y="56" width="134" height="44" rx="8" fill="#0f766e"/>
    <text x="1016" y="84" class="small white">+ Проект</text>

    <rect x="260" y="145" width="856" height="58" rx="8" class="surface"/>
    <text x="296" y="181" class="body">Поиск по названию, стеку или навыкам</text>
    <rect x="1000" y="154" width="94" height="40" rx="8" fill="#7c3aed"/>
    <text x="1030" y="179" class="small white">Найти</text>

    <rect x="260" y="234" width="260" height="104" rx="8" class="surface"/>
    <text x="286" y="268" class="small">Активные проекты</text>
    <text x="286" y="318" class="title">3</text>
    <rect x="542" y="234" width="260" height="104" rx="8" fill="#ffffff" stroke="#80cbc4"/>
    <text x="568" y="268" class="small">Заявки</text>
    <text x="568" y="318" class="title">2</text>
    <rect x="824" y="234" width="292" height="104" rx="8" fill="#ffffff" stroke="#f0b088"/>
    <text x="850" y="268" class="small">Совпадения</text>
    <text x="850" y="318" class="title">14</text>

    <rect x="260" y="370" width="558" height="292" rx="8" class="surface"/>
    <text x="286" y="410" class="h2">Рекомендуемые проекты</text>
    <rect x="286" y="436" width="506" height="90" rx="8" class="soft"/>
    <text x="308" y="466" class="h2">AI Study Planner</text>
    <text x="308" y="493" class="small">Планировщик учебных задач с рекомендациями.</text>
    <rect x="308" y="508" width="72" height="26" rx="8" class="chip"/>
    <text x="322" y="525" class="chipText">React</text>
    <rect x="390" y="508" width="88" height="26" rx="8" class="chip"/>
    <text x="404" y="525" class="chipText">Node.js</text>
    <text x="744" y="466" class="small teal">92%</text>
    <rect x="286" y="546" width="506" height="90" rx="8" class="soft"/>
    <text x="308" y="576" class="h2">Hackathon Radar</text>
    <text x="308" y="603" class="small">Каталог хакатонов и командного поиска.</text>

    <rect x="846" y="370" width="270" height="292" rx="8" class="surface"/>
    <text x="870" y="410" class="h2">Мои заявки</text>
    <rect x="870" y="446" width="220" height="50" rx="8" class="soft"/>
    <text x="890" y="477" class="small">Campus Events</text>
    <rect x="1008" y="459" width="66" height="24" rx="8" class="orangeChip"/>
    <text x="1018" y="475" class="orangeChipText">wait</text>
    <rect x="870" y="512" width="220" height="50" rx="8" class="soft"/>
    <text x="890" y="543" class="small">Code Mentor</text>
    <rect x="1000" y="525" width="74" height="24" rx="8" class="greenChip"/>
    <text x="1009" y="541" class="greenChipText">ok</text>
  </g>

  <g id="projects-desktop" transform="translate(80 930)">
    <rect width="1180" height="760" rx="18" class="page"/>
    <rect x="0" y="0" width="220" height="760" rx="18" fill="#fffaf2" stroke="#ded8ce"/>
    <text x="36" y="62" class="h2">EduMatch</text>
    <text x="58" y="145" class="small">Дашборд</text>
    <rect x="26" y="178" width="168" height="42" rx="8" fill="#e2f4ef"/>
    <text x="58" y="205" class="small teal">Проекты</text>
    <text x="58" y="255" class="small">Тиммейты</text>
    <text x="260" y="70" class="h1">Поиск проектов</text>
    <text x="260" y="104" class="body">Фильтры по названию, стеку, навыкам и дедлайну</text>

    <rect x="260" y="140" width="856" height="62" rx="8" class="surface"/>
    <text x="292" y="178" class="body">Например: React, Figma, хакатон</text>
    <rect x="998" y="151" width="96" height="40" rx="8" fill="#7c3aed"/>
    <text x="1028" y="176" class="small white">Найти</text>

    <rect x="260" y="230" width="226" height="420" rx="8" class="surface"/>
    <text x="286" y="270" class="h2">Фильтры</text>
    <text x="286" y="318" class="small">Навыки</text>
    <rect x="286" y="336" width="76" height="28" rx="8" class="chip"/>
    <text x="300" y="355" class="chipText">React</text>
    <rect x="370" y="336" width="94" height="28" rx="8" class="purpleChip"/>
    <text x="384" y="355" class="purpleChipText">Figma</text>
    <text x="286" y="405" class="small">Сортировка</text>
    <rect x="286" y="425" width="160" height="38" rx="8" fill="#f7f4ef" stroke="#ded8ce"/>
    <text x="306" y="449" class="small">По дате</text>

    <rect x="514" y="230" width="602" height="420" rx="8" class="surface"/>
    <text x="540" y="270" class="h2">Найдено 24 проекта</text>
    <rect x="540" y="300" width="542" height="92" rx="8" class="soft"/>
    <text x="564" y="330" class="h2">AI Study Planner</text>
    <text x="564" y="356" class="small">React · Node.js · PostgreSQL</text>
    <text x="978" y="330" class="small teal">Открыть</text>
    <rect x="540" y="410" width="542" height="92" rx="8" class="soft"/>
    <text x="564" y="440" class="h2">Design Sprint Board</text>
    <text x="564" y="466" class="small">Figma · Research · UI/UX</text>
    <text x="978" y="440" class="small teal">Открыть</text>
    <rect x="540" y="520" width="542" height="92" rx="8" class="soft"/>
    <text x="564" y="550" class="h2">Go API Starter</text>
    <text x="564" y="576" class="small">Go · PostgreSQL · Redis</text>
    <text x="978" y="550" class="small teal">Открыть</text>
  </g>

  <g id="project-details-desktop" transform="translate(1340 990)">
    <rect width="1180" height="760" rx="18" class="page"/>
    <rect x="0" y="0" width="220" height="760" rx="18" fill="#fffaf2" stroke="#ded8ce"/>
    <text x="36" y="62" class="h2">EduMatch</text>
    <text x="58" y="145" class="small">Дашборд</text>
    <text x="58" y="205" class="small teal">Проекты</text>
    <text x="260" y="70" class="small purple">Проект</text>
    <text x="260" y="108" class="h1">Hackathon Radar</text>
    <text x="260" y="142" class="body">Каталог хакатонов с командным поиском и дедлайнами.</text>
    <rect x="986" y="64" width="130" height="44" rx="8" fill="#0f766e"/>
    <text x="1018" y="92" class="small white">Подать заявку</text>

    <rect x="260" y="180" width="540" height="252" rx="8" class="surface"/>
    <text x="286" y="220" class="h2">Описание</text>
    <text x="286" y="258" class="body">Проект помогает студентам быстро находить актуальные хакатоны,</text>
    <text x="286" y="286" class="body">собирать команды и отслеживать дедлайны.</text>
    <text x="286" y="342" class="small">Требуемый стек</text>
    <rect x="286" y="362" width="98" height="30" rx="8" class="chip"/>
    <text x="302" y="382" class="chipText">TypeScript</text>
    <rect x="394" y="362" width="74" height="30" rx="8" class="purpleChip"/>
    <text x="410" y="382" class="purpleChipText">Figma</text>
    <rect x="478" y="362" width="70" height="30" rx="8" class="chip"/>
    <text x="494" y="382" class="chipText">Redis</text>

    <rect x="828" y="180" width="288" height="252" rx="8" class="surface"/>
    <text x="854" y="220" class="h2">Команда</text>
    <text x="854" y="270" class="small">Айдана Ким · Frontend</text>
    <text x="854" y="314" class="small">Максим Орлов · Backend</text>
    <text x="854" y="358" class="small">Самира Нур · Designer</text>

    <rect x="260" y="462" width="856" height="218" rx="8" class="surface"/>
    <text x="286" y="502" class="h2">Чат проекта</text>
    <rect x="286" y="532" width="360" height="42" rx="8" fill="#f1eee8"/>
    <text x="306" y="559" class="small">Нужно закрыть дизайн формы заявки.</text>
    <rect x="610" y="590" width="380" height="42" rx="8" fill="#0f766e"/>
    <text x="630" y="617" class="small white">Я подготовлю wireframe и состояния ошибок.</text>
  </g>

  <g id="teammates-desktop" transform="translate(2600 990)">
    <rect width="1180" height="760" rx="18" class="page"/>
    <rect x="0" y="0" width="220" height="760" rx="18" fill="#fffaf2" stroke="#ded8ce"/>
    <text x="36" y="62" class="h2">EduMatch</text>
    <text x="58" y="145" class="small">Дашборд</text>
    <text x="58" y="205" class="small">Проекты</text>
    <rect x="26" y="228" width="168" height="42" rx="8" fill="#e2f4ef"/>
    <text x="58" y="255" class="small teal">Тиммейты</text>
    <text x="260" y="70" class="h1">Поиск тиммейтов</text>
    <text x="260" y="104" class="body">Подбор студентов по навыкам, курсу и рейтингу</text>

    <rect x="260" y="145" width="856" height="58" rx="8" class="surface"/>
    <text x="292" y="181" class="body">Поиск по имени, стеку или университету</text>
    <rect x="260" y="235" width="856" height="86" rx="8" class="surface"/>
    <text x="286" y="268" class="small">Навыки</text>
    <rect x="286" y="282" width="80" height="28" rx="8" class="chip"/>
    <text x="303" y="301" class="chipText">React</text>
    <rect x="376" y="282" width="94" height="28" rx="8" class="chip"/>
    <text x="393" y="301" class="chipText">Node.js</text>
    <rect x="480" y="282" width="88" height="28" rx="8" class="purpleChip"/>
    <text x="497" y="301" class="purpleChipText">Figma</text>

    <rect x="260" y="355" width="266" height="190" rx="8" class="surface"/>
    <circle cx="304" cy="404" r="28" fill="#7c3aed"/>
    <text x="294" y="414" class="h2 white">А</text>
    <text x="348" y="394" class="h2">Айдана Ким</text>
    <text x="348" y="424" class="small">Frontend · 4.8</text>
    <rect x="286" y="468" width="72" height="28" rx="8" class="chip"/>
    <text x="300" y="487" class="chipText">React</text>
    <rect x="366" y="468" width="74" height="28" rx="8" class="purpleChip"/>
    <text x="382" y="487" class="purpleChipText">UI/UX</text>

    <rect x="554" y="355" width="266" height="190" rx="8" class="surface"/>
    <circle cx="598" cy="404" r="28" fill="#0f766e"/>
    <text x="587" y="414" class="h2 white">М</text>
    <text x="642" y="394" class="h2">Максим Орлов</text>
    <text x="642" y="424" class="small">Backend · 4.7</text>
    <rect x="580" y="468" width="94" height="28" rx="8" class="chip"/>
    <text x="597" y="487" class="chipText">Node.js</text>
    <rect x="684" y="468" width="100" height="28" rx="8" class="chip"/>
    <text x="701" y="487" class="chipText">PostgreSQL</text>

    <rect x="848" y="355" width="266" height="190" rx="8" class="surface"/>
    <circle cx="892" cy="404" r="28" fill="#c2410c"/>
    <text x="883" y="414" class="h2 white">С</text>
    <text x="936" y="394" class="h2">Самира Нур</text>
    <text x="936" y="424" class="small">Designer · 4.9</text>
    <rect x="874" y="468" width="78" height="28" rx="8" class="purpleChip"/>
    <text x="890" y="487" class="purpleChipText">Figma</text>
    <rect x="962" y="468" width="92" height="28" rx="8" class="purpleChip"/>
    <text x="978" y="487" class="purpleChipText">Research</text>
  </g>

  <g id="mobile-dashboard" transform="translate(80 1780)">
    <rect width="390" height="844" rx="28" fill="#101820"/>
    <rect x="12" y="12" width="366" height="820" rx="22" class="page"/>
    <text x="34" y="62" class="h2">EduMatch</text>
    <circle cx="336" cy="54" r="18" fill="#0f766e"/>
    <text x="331" y="61" class="small white">E</text>
    <rect x="34" y="92" width="322" height="46" rx="8" class="surface"/>
    <text x="54" y="120" class="small">Поиск проектов</text>
    <rect x="34" y="160" width="96" height="74" rx="8" class="surface"/>
    <text x="52" y="188" class="tiny">Проекты</text>
    <text x="52" y="220" class="h2">3</text>
    <rect x="146" y="160" width="96" height="74" rx="8" fill="#ffffff" stroke="#80cbc4"/>
    <text x="164" y="188" class="tiny">Заявки</text>
    <text x="164" y="220" class="h2">2</text>
    <rect x="258" y="160" width="98" height="74" rx="8" fill="#ffffff" stroke="#f0b088"/>
    <text x="276" y="188" class="tiny">Matches</text>
    <text x="276" y="220" class="h2">14</text>
    <text x="34" y="284" class="h2">Рекомендации</text>
    <rect x="34" y="306" width="322" height="116" rx="8" class="surface"/>
    <text x="54" y="338" class="h2">AI Study Planner</text>
    <text x="54" y="365" class="small">React · Node.js · PostgreSQL</text>
    <rect x="54" y="382" width="70" height="28" rx="8" class="chip"/>
    <text x="69" y="401" class="chipText">React</text>
    <rect x="34" y="438" width="322" height="116" rx="8" class="surface"/>
    <text x="54" y="470" class="h2">Hackathon Radar</text>
    <text x="54" y="497" class="small">TypeScript · Figma · Redis</text>
    <text x="34" y="604" class="h2">Мои заявки</text>
    <rect x="34" y="628" width="322" height="54" rx="8" class="surface"/>
    <text x="54" y="662" class="small">Campus Events</text>
    <rect x="34" y="754" width="322" height="54" rx="16" fill="#fffaf2" stroke="#ded8ce"/>
    <text x="62" y="788" class="tiny teal">Dashboard</text>
    <text x="150" y="788" class="tiny">Projects</text>
    <text x="230" y="788" class="tiny">Team</text>
  </g>

  <g id="mobile-project" transform="translate(540 1780)">
    <rect width="390" height="844" rx="28" fill="#101820"/>
    <rect x="12" y="12" width="366" height="820" rx="22" class="page"/>
    <text x="34" y="62" class="small purple">Проект</text>
    <text x="34" y="100" class="h1">Hackathon Radar</text>
    <text x="34" y="132" class="body">Каталог хакатонов с командным поиском.</text>
    <rect x="34" y="160" width="322" height="46" rx="8" fill="#0f766e"/>
    <text x="146" y="189" class="small white">Подать заявку</text>
    <rect x="34" y="232" width="322" height="168" rx="8" class="surface"/>
    <text x="54" y="266" class="h2">Описание</text>
    <text x="54" y="298" class="small">Помогает студентам находить</text>
    <text x="54" y="322" class="small">актуальные хакатоны и команды.</text>
    <rect x="54" y="350" width="98" height="28" rx="8" class="chip"/>
    <text x="68" y="369" class="chipText">TypeScript</text>
    <rect x="162" y="350" width="76" height="28" rx="8" class="purpleChip"/>
    <text x="178" y="369" class="purpleChipText">Figma</text>
    <rect x="34" y="424" width="322" height="132" rx="8" class="surface"/>
    <text x="54" y="458" class="h2">Команда</text>
    <text x="54" y="494" class="small">Айдана Ким · Frontend</text>
    <text x="54" y="526" class="small">Максим Орлов · Backend</text>
    <rect x="34" y="580" width="322" height="166" rx="8" class="surface"/>
    <text x="54" y="614" class="h2">Чат проекта</text>
    <rect x="54" y="638" width="246" height="38" rx="8" fill="#f1eee8"/>
    <text x="70" y="662" class="tiny">Нужно закрыть форму заявки.</text>
    <rect x="88" y="686" width="222" height="38" rx="8" fill="#0f766e"/>
    <text x="104" y="710" class="tiny white">Я подготовлю wireframe.</text>
  </g>
</svg>
